<svg id="visual" viewBox="0 0 900 600" width="900" height="600" xmlns="http://www.w3.org/2000/svg" xmlns:xlink="http://www.w3.org/1999/xlink" version="1.1"><rect x="0" y="0" width="900" height="600" fill="#FFFFFF"></rect><path d="M179 0L176.3 7.2C173.7 14.3 168.3 28.7 159.7 43C151 57.3 139 71.7 140.5 86C142 100.3 157 114.7 147.3 128.8C137.7 143 103.3 157 87 171.2C70.7 185.3 72.3 199.7 88.2 214C104 228.3 134 242.7 152.3 257C170.7 271.3 177.3 285.7 177.7 300C178 314.3 172 328.7 161.8 343C151.7 357.3 137.3 371.7 141.2 386C145 400.3 167 414.7 172.5 428.8C178 443 167 457 152.7 471.2C138.3 485.3 120.7 499.7 121.2 514C121.7 528.3 140.3 542.7 142 557C143.7 571.3 128.3 585.7 120.7 592.8L113 600" fill="none" stroke-linecap="round" stroke-linejoin="miter" stroke="#c8bdb1" stroke-width="23"></path></svg>